<?xml version="1.0" encoding="utf-8"?>
<!-- Generator: Adobe Illustrator 24.1.2, SVG Export Plug-In . SVG Version: 6.00 Build 0)  -->
<svg version="1.1" xmlns="http://www.w3.org/2000/svg" xmlns:xlink="http://www.w3.org/1999/xlink" x="0px" y="0px"
	 viewBox="0 0 180 125" style="enable-background:new 0 0 180 125;" xml:space="preserve">
<style type="text/css">
	.st0{display:none;}
	.st1{display:inline;}
	.st2{fill:#30459E;}
	.st3{fill:#FFFFFF;}
	.st4{display:inline;fill:#FFFFFF;}
</style>
<g id="圖層_1" class="st0">
	<g class="st1">
		<path class="st2" d="M129.8,64.3c0,0-36.1-3.8-38.6,30.5c-2.6-34.3-38.6-30.5-38.6-30.5s-4.1,38.8,38.6,38.8
			C134.2,103.1,129.8,64.3,129.8,64.3z"/>
		<path class="st2" d="M90,75.5c0.4,0.6,0.7,1.2,1.1,1.8c0.3-0.6,0.7-1.2,1.1-1.8c2.9-4.5,6.9-8.1,11.7-10.8
			c6.6-3.7,13.8-4.9,18.9-5.3c-2.9-14.9-15.6-25.1-15.6-25.1S91.5,47.1,91.1,64.9C90.8,47.1,75,34.3,75,34.3S62.3,44.5,59.4,59.4
			c5.1,0.4,12.3,1.6,18.9,5.3C83.2,67.4,87.1,71,90,75.5z"/>
		<path class="st2" d="M91.1,46.7c3.7-6.9,8.5-12,11.1-14.5c-5.2-8-11.1-12.8-11.1-12.8S85.2,24.2,80,32.2
			C82.6,34.7,87.5,39.8,91.1,46.7L91.1,46.7z"/>
	</g>
</g>
<g id="圖層_2">
	<g>
		<path class="st3" d="M116,29.3c2.2,3.8,0.4,5.3-1.4,6.3c-1.8,1-3.9,1.4-6.1-2.5c-2.2-3.8-2.3-12-2.3-12S113.9,25.4,116,29.3z"/>
		<path class="st3" d="M125.5,40.2c-1.9,4-4.1,3.4-6,2.5c-1.8-0.9-3.4-2.5-1.5-6.4c1.9-4,8.5-8.7,8.5-8.7S127.4,36.3,125.5,40.2z"/>
		<path class="st3" d="M126.8,55.3c-2.9,3.4-4.8,2.2-6.4,0.8c-1.6-1.3-2.6-3.2,0.2-6.6c2.8-3.4,10.5-6.2,10.5-6.2
			S129.6,51.9,126.8,55.3z"/>
		<path class="st3" d="M114.1,50.8c3.9,2.3,3.1,4.4,2.1,6.2c-1,1.8-2.7,3.1-6.7,0.9c-3.9-2.3-8.2-9.4-8.2-9.4S110.2,48.6,114.1,50.8
			z"/>
		<path class="st3" d="M121.6,70.7c-3.8,2.2-5.3,0.4-6.3-1.4c-1-1.8-1.4-3.9,2.5-6.1c3.8-2.2,12-2.3,12-2.3S125.5,68.5,121.6,70.7z"
			/>
		<path class="st3" d="M111.8,62.7c2.8,3.6,1.3,5.3-0.4,6.5c-1.6,1.3-3.7,1.9-6.5-1.7c-2.8-3.6-4.2-11.8-4.2-11.8
			S109,59.1,111.8,62.7z"/>
		<path class="st3" d="M113.6,83.8c-4.3,0.8-5.1-1.4-5.5-3.4c-0.3-2,0-4.2,4.4-4.9c4.4-0.8,12,1.9,12,1.9S118,83,113.6,83.8z"/>
		<path class="st3" d="M106.5,73c1.9,4.1,0,5.4-1.9,6.3c-1.9,0.8-4,1-5.9-3.1c-1.9-4.1-1.4-12.4-1.4-12.4S104.6,68.8,106.5,73z"/>
		<path class="st3" d="M97.9,80.9c0.8,4.5-1.4,5.2-3.4,5.6c-2,0.3-4.2-0.1-4.9-4.5c-0.8-4.5,1.9-12.3,1.9-12.3S97.1,76.5,97.9,80.9z
			"/>
		<path class="st3" d="M102.1,93.8c-4.5-0.7-4.5-3-4.2-5c0.3-2,1.4-3.9,5.9-3.3c4.5,0.7,11.1,5.7,11.1,5.7S106.5,94.4,102.1,93.8z"
			/>
		<path class="st3" d="M88.1,88.1c0.3,4.5-1.9,5.1-4,5.2c-2,0.1-4.1-0.5-4.5-5c-0.3-4.5,3.1-12.1,3.1-12.1S87.8,83.6,88.1,88.1z"/>
		<path class="st3" d="M89.2,101.3c-4.3-1.5-3.9-3.8-3.2-5.7c0.7-1.9,2.1-3.6,6.4-2.1c4.3,1.5,9.8,7.7,9.8,7.7
			S93.5,102.8,89.2,101.3z"/>
		<path class="st3" d="M112.8,38.5c4.3,1.2,4.1,3.5,3.6,5.4c-0.6,2-1.8,3.7-6.2,2.6c-4.4-1.2-10.3-6.9-10.3-6.9
			S108.5,37.3,112.8,38.5z"/>
		<path class="st3" d="M82.5,95.7c0,0-20.5,8.1-33.4,5.2c-1,1.2,1.4,2.9,1.4,2.9S69.2,104.2,82.5,95.7z"/>
	</g>
</g>
<g id="圖層_3" class="st0">
	<g class="st1">
		<g class="st0">
			<path class="st4" d="M84.8,47.3l1.5-15.1c0.3-3,3.7-4.5,6.1-2.8l8.4,5.9l5.3,6.2L81.4,59.7L84.8,47.3z"/>
			<g class="st1">
				<path class="st3" d="M103,30.9c0-6,5-10.8,11.1-10.5c5.7,0.3,10,5,10,10.7v30h-5.2V30.9c0-3.1-2.6-5.6-5.8-5.4
					c-2.8,0.2-5,2.6-5,5.5v22H103V30.9z"/>
			</g>
			<path class="st4" d="M63,76.4h40.6v6.7H63V76.4z"/>
			<path class="st4" d="M104.4,38l-3.5-2.6c-1.6-1.2-3.9-1-5.3,0.5l-20,21.3c-1.4,1.5-1.4,3.7-0.1,5.3l2.9,3.4l11.1-1.2l18.3-18.3
				L104.4,38z"/>
			<path class="st4" d="M130.2,57.3l-7.4,1.9l-22.8,22.8l-1,8.1c2.7,2.7,7.3,2.7,10-0.1l21.6-22.5C133.4,64.5,133.2,59.9,130.2,57.3
				L130.2,57.3z"/>
			<g class="st1">
				<path class="st3" d="M104.5,84.2c0,0-1.2-1.4-3.1-3.6l-1.3,1.3l-1,8.1c2.7,2.7,7.3,2.7,10-0.1l5-5.3
					C111.3,87,107.1,86.8,104.5,84.2L104.5,84.2z"/>
				<path class="st3" d="M80.3,56.1c-0.7-0.9-1-1.9-0.9-3l-3.8,4.1c-1.4,1.5-1.4,3.7-0.1,5.3l2.9,3.4l9.4-1
					C83.6,59.9,80.3,56.1,80.3,56.1L80.3,56.1z"/>
				<g id="XMLID_246_">
					<g>
						<path class="st3" d="M130.2,57.3L130.2,57.3L99.1,90l0,0c-0.1-0.1-0.3-0.3-0.4-0.4L78.3,65.8l26-27.8l25.4,18.9
							C129.9,57,130.1,57.2,130.2,57.3L130.2,57.3z"/>
					</g>
				</g>
				<path class="st3" d="M104.5,84.2c-0.1-0.1-14.1-16.5-20.7-24.2l-5.4,5.8l20.4,23.9c0.1,0.1,0.3,0.3,0.4,0.4l0,0L104.5,84.2
					C104.5,84.3,104.5,84.3,104.5,84.2L104.5,84.2z"/>
				<g id="XMLID_247_">
					<g>
						<g>
							<path class="st3" d="M105.6,54.7c1.5,1.5,1.5,4,0,5.5l-2,2l-1.5-1.5c-1.5-1.5-1.5-4,0-5.5l1.5-1.5c0.3-0.3,0.7-0.3,1,0
								L105.6,54.7z"/>
							<path class="st3" d="M103.7,62.1l-4,4c-1.5,1.5-4,1.5-5.5,0l-2.6-2.6c-0.3-0.3-0.3-0.7,0-1l3.5-3.5c1.5-1.5,4-1.5,5.5,0
								l1.5,1.5L103.7,62.1z"/>
						</g>
					</g>
				</g>
				<path class="st3" d="M63,76.4h8.7v6.7H63V76.4z"/>
				<path class="st3" d="M62.2,89.2h-2.1c-0.6,0-1-0.5-1-1V71.3c0-0.6,0.5-1,1-1h2.1c3.4,0,6.1,2.7,6.1,6.1v6.7
					C68.3,86.5,65.6,89.2,62.2,89.2L62.2,89.2z"/>
			</g>
		</g>
		<g>
			<path class="st3" d="M133.9,61.8c-0.2-2.4-1.4-4.5-3.3-6l-5.2-3.9v-8.5c0-0.7-0.6-1.3-1.3-1.3s-1.3,0.6-1.3,1.3v6.6l-2.6-1.9
				V30.9c0-1.8-0.8-3.6-2.1-4.9c-1.4-1.3-3.2-1.9-5-1.8c-3.5,0.3-6.2,3.2-6.2,6.8v7.2l-2.6-1.9v-5.3c0-2.6,1-4.9,2.9-6.7
				c1.9-1.8,4.3-2.7,6.8-2.6c4.9,0.2,8.8,4.4,8.8,9.4V38c0,0.7,0.6,1.3,1.3,1.3s1.3-0.6,1.3-1.3v-6.9c0-6.4-5-11.7-11.3-12
				c-3.3-0.2-6.4,1-8.7,3.3c-2.4,2.3-3.7,5.3-3.7,8.6v3.4l-8.5-6c-1.5-1.1-3.5-1.3-5.1-0.5c-1.7,0.8-2.8,2.3-3,4.2l-1.5,14.6
				l-3.8,4.1c-0.5,0.5-0.5,1.3,0.1,1.8c0.5,0.5,1.3,0.5,1.8-0.1l14.9-15.8c0.9-1,2.4-1.1,3.5-0.3l2.4,1.8L78.4,63.8l-1.9-2.3
				c-0.9-1-0.8-2.6,0.1-3.6l1.3-1.4c0.5-0.5,0.5-1.3-0.1-1.8c-0.5-0.5-1.3-0.5-1.8,0.1l-1.3,1.4c-1.8,2-1.9,5-0.2,7l10.1,11.9H69.5
				c-0.6-3.5-3.7-6.1-7.3-6.1h-2.1c-1.3,0-2.3,1-2.3,2.3v16.9c0,1.3,1,2.3,2.3,2.3h2.1c3.7,0,6.7-2.7,7.3-6.1h23l5.2,6.1
				c1.5,1.8,3.7,2.8,6.1,2.9c0.1,0,0.2,0,0.2,0c2.3,0,4.4-0.9,6-2.6l21.6-22.5C133.2,66.6,134.1,64.2,133.9,61.8L133.9,61.8z
				 M67,83.1c0,2.7-2.2,4.8-4.8,4.8h-1.8V71.6h1.8c2.7,0,4.8,2.2,4.8,4.8L67,83.1L67,83.1z M109.5,31.1c0-2.2,1.7-4,3.8-4.2
				c1.1-0.1,2.2,0.3,3.1,1.1c0.8,0.8,1.3,1.9,1.3,3v15.3l-8.1-6.1V31.1z M94.7,34.9l-8.2,8.7l1.1-11.3c0.1-0.9,0.7-1.7,1.5-2.1
				c0.9-0.4,1.8-0.3,2.6,0.2l4.6,3.3C95.7,34,95.2,34.4,94.7,34.9L94.7,34.9z M69.6,81.8v-4.1h17.2l3.5,4.1H69.6z M129.7,66.5
				L108.1,89c-1.1,1.2-2.7,1.8-4.3,1.8c-1,0-2-0.3-2.9-0.9l21.5-22.5c0.5-0.5,0.5-1.3,0-1.8c-0.5-0.5-1.3-0.5-1.8,0L99.1,88.1
				l-19-22.3l24.5-26.1l23.7,17.7l-3.9,4.1c-0.5,0.5-0.5,1.3,0,1.8c0.3,0.2,0.6,0.4,0.9,0.4c0.3,0,0.7-0.1,0.9-0.4l4-4.2
				c0.6,0.8,1,1.8,1.1,2.9C131.4,63.7,130.8,65.3,129.7,66.5L129.7,66.5z"/>
			<path class="st3" d="M105.5,62.1l1-1c2-2,2-5.3,0-7.3l-1-1c-0.4-0.4-0.9-0.6-1.4-0.6c-0.5,0-1,0.2-1.4,0.6l-1.5,1.5
				C100.4,55,100,56,99.8,57c-1.9-0.7-4-0.3-5.5,1.1l-3.5,3.5c-0.8,0.8-0.8,2,0,2.8l2.6,2.6c1,1,2.3,1.5,3.6,1.5
				c1.3,0,2.6-0.5,3.6-1.5l3.1-3.1l3.9,3.9c0.3,0.3,0.6,0.4,0.9,0.4s0.7-0.1,0.9-0.4c0.5-0.5,0.5-1.3,0-1.8L105.5,62.1z M103.1,56
				l1-1l0.6,0.6c1,1,1,2.7,0,3.7l-1,1l-0.6-0.6C102.1,58.7,102.1,57,103.1,56z M98.7,65.2c-1,1-2.6,1-3.6,0L93,63.1l3.1-3.1
				c1-1,2.6-1,3.6,0l2.1,2.1L98.7,65.2z"/>
			<path class="st3" d="M54.1,83.6c-1.5,0-2.8,1.2-2.8,2.8v2.8c0,0.7,0.6,1.3,1.3,1.3s1.3-0.6,1.3-1.3v-2.8c0-0.1,0.1-0.2,0.2-0.2
				c0.7,0,1.3-0.6,1.3-1.3S54.8,83.6,54.1,83.6z"/>
			<path class="st3" d="M52.6,93.6c-0.7,0-1.3,0.6-1.3,1.3v9.2c0,0.7,0.6,1.3,1.3,1.3s1.3-0.6,1.3-1.3v-9.2
				C53.9,94.2,53.3,93.6,52.6,93.6z"/>
			<path class="st3" d="M54.1,74.2c-4.4,0-8,3.6-8,8v22.4c0,0.7,0.6,1.3,1.3,1.3s1.3-0.6,1.3-1.3V82.2c0-3,2.4-5.4,5.4-5.4
				c0.7,0,1.3-0.6,1.3-1.3S54.8,74.2,54.1,74.2z"/>
		</g>
	</g>
</g>
<g id="圖層_4" class="st0">
	<g class="st1">
		<g>
			<path class="st3" d="M119.7,82.5H116c0.3-8.3-3.9-12.1-6.7-14.6c-1.1-1-2-1.8-2.3-2.6c-1.7-4.4-7-6.1-10.5-6.2
				c-0.5-0.7-0.8-2.1-1.1-3.9c-0.4-2.2-0.8-5-2.2-7.9c-1.1-2.5-2.8-4-4.9-4.5c-2-0.5-3.9,0-5.5,0.7c-1.5-0.5-3.2-0.6-4.7-0.2
				L67.8,20.4c-0.2-0.4-0.5-0.7-0.9-0.9c-0.4-0.2-0.9-0.1-1.3,0L61,21.6c-0.8,0.4-1.2,1.4-0.8,2.2l10.3,22.8
				c-3.4,2.4-4.7,6.9-2.9,10.8l1,2.3c0.8,1.8,2,3.2,3.5,4.4c-0.3,0.7-0.5,1.5-0.7,2.3c-0.5,2.1-1.1,4.2-3.1,5.6
				c-3.8,2.6-4.2,7.7-4.1,10.5h-3.6c-0.9,0-1.7,0.7-1.7,1.7c0,0.9,0.7,1.7,1.7,1.7h0.2V92c0,7.1,5.7,12.8,12.8,12.8h33
				c7.1,0,12.8-5.7,12.8-12.8v-6.1h0.2c0.9,0,1.7-0.7,1.7-1.7C121.3,83.2,120.6,82.5,119.7,82.5z M71.6,58.4l-1-2.3
				c-1.2-2.7,0-6,2.7-7.2c0.4-0.2,0.7-0.5,0.9-0.9c0.2-0.4,0.1-0.9,0-1.3L63.9,24l1.5-0.7L75.7,46c0.2,0.4,0.5,0.7,0.9,0.9
				c0.4,0.2,0.9,0.1,1.3,0c0.3-0.1,0.6-0.2,0.9-0.3c-1.1,1.8-1.7,4.7-2.4,7.9c-0.4,1.7-0.7,3.4-1.1,4.8c-0.5,1.7-0.9,2.1-1,2.2
				c-0.1,0-0.1,0.1-0.2,0.1C73,60.7,72.2,59.6,71.6,58.4z M70.2,74.7c3-2.1,3.8-5.2,4.4-7.5c0.3-1.3,0.7-2.6,1.2-2.9
				c2-1,2.7-4.2,3.8-9.2c0.5-2.5,1.4-6.6,2.3-7.3c0.8-0.6,3.4-2.4,5.6-1.9c1.1,0.3,2,1.2,2.7,2.7c1.2,2.6,1.6,5,1.9,7.1
				c0.2,1.4,0.4,2.6,0.9,3.7c-1.8,0.5-4,1.5-5.5,3.7C87,64,87.1,65,87.9,65.6c0.3,0.2,0.6,0.3,1,0.3c0.5,0,1-0.2,1.4-0.7
				c1.9-2.7,5.7-2.8,5.7-2.8c0,0,0,0,0,0c0,0,0,0,0,0c2.6,0,6.8,1.2,8,4.1c0.6,1.5,1.8,2.6,3.1,3.8c2.6,2.4,5.8,5.3,5.6,12.2H67.6
				C67.5,80.4,67.6,76.5,70.2,74.7z M116.1,88.3H82.9c-0.9,0-1.7,0.7-1.7,1.7c0,0.9,0.7,1.7,1.7,1.7h33.1V92c0,5.2-4.3,9.5-9.5,9.5
				h-33c-5.2,0-9.5-4.3-9.5-9.5v-0.3h5.2c0.9,0,1.7-0.7,1.7-1.7c0-0.9-0.7-1.7-1.7-1.7h-5.2v-2.5h51.9L116.1,88.3L116.1,88.3z"/>
		</g>
	</g>
</g>
</svg>
