<?xml version="1.0" encoding="utf-8"?>
<!-- Generator: Adobe Illustrator 24.1.2, SVG Export Plug-In . SVG Version: 6.00 Build 0)  -->
<svg version="1.1" id="圖層_1" xmlns="http://www.w3.org/2000/svg" xmlns:xlink="http://www.w3.org/1999/xlink" x="0px" y="0px"
	 viewBox="0 0 60 60" style="enable-background:new 0 0 60 60;" xml:space="preserve">
<style type="text/css">
	.st0{display:none;fill:#57595B;}
	.st1{fill:#FFFFFF;}
</style>
<g>
	<path class="st0" d="M54.1,30c0,13.3-10.7,24-24,24c-13.3,0-24-10.7-24-24c0-13.3,10.7-24,24-24C43.4,6,54.1,16.7,54.1,30z"/>
	<g>
		<path class="st1" d="M21.8,58.8h11.6c0,0,0-16,0-28.9h8.6L43,18.3h-9.2v-4.6c0-2.3,1.5-2.8,2.6-2.8c1.1,0,6.5,0,6.5,0V1l-8.9,0
			C24,1,21.7,8.4,21.7,13.1v5.2H16v11.6h5.8C21.8,43,21.8,58.8,21.8,58.8z"/>
	</g>
</g>
</svg>
