<?xml version="1.0" encoding="utf-8"?>
<!-- Generator: Adobe Illustrator 24.1.2, SVG Export Plug-In . SVG Version: 6.00 Build 0)  -->
<svg version="1.1" id="圖層_1" xmlns="http://www.w3.org/2000/svg" xmlns:xlink="http://www.w3.org/1999/xlink" x="0px" y="0px"
	 viewBox="0 0 60 60" style="enable-background:new 0 0 60 60;" xml:space="preserve">
<style type="text/css">
	.st0{display:none;}
	.st1{fill:#57595B;}
	.st2{display:inline;}
	.st3{fill:#FFFFFF;}
	.st4{display:inline;fill:#FFFFFF;}
	.st5{display:none;fill:#57595B;}
</style>
<g class="st0">
	<path class="st1" d="M54.1,30c0,13.3-10.7,24-24,24c-13.3,0-24-10.7-24-24c0-13.3,10.7-24,24-24C43.4,6,54.1,16.7,54.1,30z"/>
	<g class="st2">
		<path class="st3" d="M21.8,58.8h11.6c0,0,0-16,0-28.9h8.6L43,18.3h-9.2v-4.6c0-2.3,1.5-2.8,2.6-2.8c1.1,0,6.5,0,6.5,0V1l-8.9,0
			C24,1,21.7,8.4,21.7,13.1v5.2H16v11.6h5.8C21.8,43,21.8,58.8,21.8,58.8z"/>
	</g>
</g>
<g class="st0">
	<path class="st4" d="M58.3,7.4c-2.4,1.4-5,2.4-7.8,2.9c-2.2-2.4-5.4-3.8-9-3.8c-6.8,0-12.3,5.4-12.3,12.1c0,0.9,0.1,1.9,0.3,2.8
		C19.3,20.8,10.3,16,4.2,8.7c-1.1,1.8-1.7,3.9-1.7,6.1c0,4.2,2.2,7.9,5.5,10.1c-2-0.1-3.9-0.6-5.6-1.5c0,0,0,0.1,0,0.2
		c0,5.9,4.2,10.8,9.9,11.9c-1,0.3-2.1,0.4-3.2,0.4c-0.8,0-1.6-0.1-2.3-0.2c1.6,4.8,6.1,8.3,11.5,8.4c-4.2,3.2-9.5,5.2-15.3,5.2
		c-1,0-2-0.1-2.9-0.2c5.5,3.4,11.9,5.4,18.9,5.4c22.6,0,35-18.5,35-34.5c0-0.5,0-1,0-1.6c2.4-1.7,4.5-3.8,6.1-6.3
		c-2.2,1-4.6,1.6-7.1,1.9C55.5,12.6,57.4,10.2,58.3,7.4z"/>
</g>
<g class="st0">
	<path class="st4" d="M58.4,18.4c-0.1-3-0.6-5.1-1.3-6.9c-0.7-1.9-1.8-3.6-3.3-5.1c-1.4-1.4-3.2-2.6-5-3.3c-1.8-0.7-3.9-1.2-6.9-1.3
		c-3.1-0.1-4-0.2-11.8-0.2s-8.7,0-11.7,0.2c-3,0.1-5.1,0.6-6.9,1.3C9.4,3.9,7.7,5,6.3,6.5c-1.4,1.4-2.6,3.2-3.3,5
		c-0.7,1.8-1.2,3.9-1.3,6.9c-0.1,3.1-0.2,4-0.2,11.8s0,8.7,0.2,11.7C1.8,45,2.3,47,3,48.8c0.7,1.9,1.8,3.6,3.3,5.1
		c1.4,1.4,3.2,2.6,5,3.3c1.8,0.7,3.9,1.2,6.9,1.3c3,0.1,4,0.2,11.7,0.2s8.7,0,11.7-0.2c3-0.1,5.1-0.6,6.9-1.3
		c3.8-1.5,6.9-4.5,8.3-8.3c0.7-1.8,1.2-3.9,1.3-6.9c0.1-3,0.2-4,0.2-11.7S58.5,21.5,58.4,18.4z M53.2,41.7c-0.1,2.8-0.6,4.3-1,5.3
		c-1,2.5-2.9,4.5-5.4,5.4c-1,0.4-2.5,0.9-5.3,1c-3,0.1-3.9,0.2-11.5,0.2s-8.5,0-11.5-0.2c-2.8-0.1-4.3-0.6-5.3-1
		c-1.2-0.5-2.4-1.2-3.3-2.1c-0.9-0.9-1.7-2-2.1-3.3c-0.4-1-0.9-2.5-1-5.3c-0.1-3-0.2-3.9-0.2-11.5s0-8.5,0.2-11.5
		c0.1-2.8,0.6-4.3,1-5.3C8.3,12.2,9,11,10,10.1c0.9-0.9,2-1.7,3.3-2.1c1-0.4,2.5-0.9,5.3-1c3-0.1,3.9-0.2,11.5-0.2
		c7.6,0,8.5,0,11.5,0.2c2.8,0.1,4.3,0.6,5.3,1c1.2,0.5,2.4,1.2,3.3,2.1c0.9,0.9,1.7,2,2.1,3.3c0.4,1,0.9,2.5,1,5.3
		c0.1,3,0.2,3.9,0.2,11.5S53.4,38.7,53.2,41.7z"/>
	<path class="st4" d="M30,15.5c-8.1,0-14.6,6.6-14.6,14.6S21.9,44.8,30,44.8c8.1,0,14.6-6.6,14.6-14.6S38.1,15.5,30,15.5z M30,39.7
		c-5.2,0-9.5-4.3-9.5-9.5s4.3-9.5,9.5-9.5c5.2,0,9.5,4.3,9.5,9.5S35.3,39.7,30,39.7z"/>
	<path class="st4" d="M48.7,15c0,1.9-1.5,3.4-3.4,3.4c-1.9,0-3.4-1.5-3.4-3.4c0-1.9,1.5-3.4,3.4-3.4C47.1,11.5,48.7,13.1,48.7,15z"
		/>
</g>
<g>
	<path class="st5" d="M48,24c0,13.3-10.7,24-24,24C10.7,48,0,37.3,0,24C0,10.7,10.7,0,24,0C37.3,0,48,10.7,48,24z"/>
	<g>
		<path class="st3" d="M45.9,40.3h2.6c0.7,0,1.2-0.6,1.2-1.3V30h9c0.7,0,1.2-0.6,1.2-1.3v-2.6c0-0.7-0.6-1.3-1.2-1.3h-9v-9.1
			c0-0.7-0.6-1.3-1.2-1.3h-2.6c-0.7,0-1.3,0.6-1.3,1.3v9.1h-9c-0.7,0-1.2,0.6-1.2,1.3v2.6c0,0.7,0.6,1.3,1.2,1.3h9v9.1
			C44.6,39.8,45.2,40.3,45.9,40.3z"/>
		<path class="st3" d="M10.2,56.1c2.3,0.6,4.7,0.9,7.3,0.9c2.3,0,4.5-0.3,6.5-0.9c6.3-1.8,10.4-6.5,10.4-11.9
			c0-5.2-1.7-8.2-6.1-11.4c-1.9-1.4-3.6-3.3-3.7-3.9c0-1.1,0.1-1.6,2.6-3.6c3.2-2.5,5-5.8,5-9.3c0-3.2-1-6-2.6-8h1.3
			c0.3,0,0.5-0.1,0.7-0.2l3.6-2.6c0.4-0.3,0.6-0.9,0.5-1.4C35.5,3.4,35,3,34.5,3H18.5c-1.7,0-3.5,0.3-5.2,0.9c-5.8,2-9.9,7-9.9,12
			c0,7.2,5.6,12.7,13,12.8c-0.1,0.6-0.2,1.1-0.2,1.7c0,1.1,0.3,2.2,0.9,3.2c-0.1,0-0.1,0-0.2,0c-7.1,0-13.5,3.5-15.9,8.7
			c-0.6,1.3-1,2.7-1,4.1c0,1.3,0.3,2.6,1,3.8C2.5,52.9,5.8,55,10.2,56.1z M11.7,15.8c-0.3-2.6,0.2-5,1.5-6.5c0.8-1,2-1.5,3.2-1.5
			l0.1,0c3.5,0.1,6.9,4,7.5,8.8c0.3,2.6-0.2,5.1-1.6,6.6c-0.8,1-1.9,1.5-3.2,1.5c0,0,0,0,0,0h-0.1C15.7,24.5,12.3,20.5,11.7,15.8z
			 M18.4,37.6l0.1,0c1.2,0,2.3,0.2,3.4,0.5c0.4,0.3,0.7,0.5,1.1,0.7c2.5,1.7,4.2,2.8,4.6,4.7c0.1,0.5,0.2,0.9,0.2,1.4
			c0,4.7-3.5,7-10.3,7c-5.2,0-9.3-3.2-9.3-7.3C8.2,40.9,13,37.6,18.4,37.6z"/>
	</g>
</g>
</svg>
