<?xml version="1.0" encoding="utf-8"?>
<!-- Generator: Adobe Illustrator 24.1.2, SVG Export Plug-In . SVG Version: 6.00 Build 0)  -->
<svg version="1.1" xmlns="http://www.w3.org/2000/svg" xmlns:xlink="http://www.w3.org/1999/xlink" x="0px" y="0px"
	 viewBox="0 0 421.7 383.5" style="enable-background:new 0 0 421.7 383.5;" xml:space="preserve">
<style type="text/css">
	.st0{display:none;}
	.st1{fill:url(#SVGID_1_);stroke:#FFFFFF;stroke-width:5;stroke-miterlimit:10;}
	.st2{fill:none;stroke:#000000;stroke-miterlimit:10;}
	.st3{fill:none;stroke:#E0C31C;stroke-miterlimit:10;}
	.st4{fill:#FFFFFF;stroke:#7F8081;stroke-width:4;stroke-miterlimit:10;}
	.st5{fill:#B38E4F;stroke:#FFFFFF;stroke-width:3;stroke-miterlimit:10;}
	.st6{fill:url(#SVGID_2_);stroke:#FFFFFF;stroke-miterlimit:10;}
	.st7{fill:url(#SVGID_3_);stroke:#FFFFFF;stroke-width:2;stroke-miterlimit:10;}
	.st8{fill:#FFFFFF;stroke:#B08848;stroke-miterlimit:10;}
	.st9{fill:url(#SVGID_4_);stroke:url(#SVGID_5_);stroke-width:0.25;stroke-miterlimit:10;}
	.st10{fill:#FFFFFF;}
	.st11{fill:#8B8B8B;}
	.st12{font-family:'CourierNewPS-BoldMT';}
	.st13{font-size:15.6624px;}
	.st14{fill:none;stroke:#000000;stroke-width:0.5;stroke-miterlimit:10;}
	.st15{font-family:'Apple-Chancery';}
	.st16{font-size:8.206px;}
	.st17{fill:#E0C31C;stroke:#000000;stroke-width:0.25;stroke-miterlimit:10;}
	.st18{font-family:'Baskerville-SemiBold';}
	.st19{font-size:27.3258px;}
	.st20{fill:#1E519C;}
</style>
<g id="레이어_1" class="st0">
	
		<image style="display:inline;overflow:visible;" width="865" height="721" xlink:href="B883E51D1BE921C6.jpg"  transform="matrix(0.5595 0 0 0.5595 0 0)">
	</image>
</g>
<g id="shape">
	<linearGradient id="SVGID_1_" gradientUnits="userSpaceOnUse" x1="53.1395" y1="198.2878" x2="371.3471" y2="198.2878">
		<stop  offset="0.1512" style="stop-color:#B4904E"/>
		<stop  offset="0.5392" style="stop-color:#FFFFFF"/>
		<stop  offset="0.8665" style="stop-color:#B4904E"/>
	</linearGradient>
	<circle class="st1" cx="212.2" cy="198.3" r="159.1"/>
	<circle class="st2" cx="212.7" cy="198.7" r="152.5"/>
	<circle class="st3" cx="212.1" cy="197.3" r="123.5"/>
	<circle class="st4" cx="212.2" cy="198.3" r="117.7"/>
	<path class="st5" d="M157.2,38.6c2.2,7.8,7.3,21.9,19.3,35.7c11.6,13.3,24.3,20.1,31.6,23.4c6.7-3,16.9-8.7,26.4-19.1
		c14.8-16,19-33.8,20.4-41.7c-7.7-4.2-25.4-12.7-49.3-12.3C182,25.2,164.7,34.1,157.2,38.6z"/>
	<linearGradient id="SVGID_2_" gradientUnits="userSpaceOnUse" x1="206.6207" y1="88.5096" x2="206.6207" y2="27.4359">
		<stop  offset="3.596230e-03" style="stop-color:#20549C"/>
		<stop  offset="0.295" style="stop-color:#205196"/>
		<stop  offset="0.5316" style="stop-color:#205094"/>
		<stop  offset="0.6428" style="stop-color:#1E4C8C"/>
		<stop  offset="0.7277" style="stop-color:#1B457F"/>
		<stop  offset="0.7994" style="stop-color:#173B6D"/>
		<stop  offset="0.8627" style="stop-color:#122E55"/>
		<stop  offset="0.9201" style="stop-color:#0C1E38"/>
		<stop  offset="0.9719" style="stop-color:#050C16"/>
		<stop  offset="1" style="stop-color:#000000"/>
	</linearGradient>
	<path class="st6" d="M165.8,38.2c2.7,7.1,7.5,17.2,16.2,27.6c9.3,11.2,19.3,18.4,26.4,22.7c6.2-3.9,14.4-10.2,22.1-19.4
		c10.3-12.3,14.9-24.5,17.1-32.2c-6.4-3.3-21.2-9.8-41.2-9.5C186.5,27.8,172,34.7,165.8,38.2z"/>
	
		<radialGradient id="SVGID_3_" cx="212.2751" cy="257.1185" r="128.8397" fx="213.0222" fy="128.281" gradientUnits="userSpaceOnUse">
		<stop  offset="0.6107" style="stop-color:#A1000F"/>
		<stop  offset="0.978" style="stop-color:#220003"/>
	</radialGradient>
	<path class="st7" d="M332,197.3c0,65.7-54,119.7-119.7,119.7s-119.7-54-119.7-119.7C172.4,197.3,252.2,197.3,332,197.3z"/>
	<polygon class="st8" points="221.6,44.9 213.2,44.9 213.2,36.5 200.1,36.5 200.1,44.9 191.6,44.9 191.6,58 200.1,58 200.1,66.4 
		213.2,66.4 213.2,58 221.6,58 	"/>
	<linearGradient id="SVGID_4_" gradientUnits="userSpaceOnUse" x1="183.4047" y1="75.8452" x2="231.6522" y2="75.8452">
		<stop  offset="0.1337" style="stop-color:#E0C31C"/>
		<stop  offset="0.5392" style="stop-color:#FFFFFF"/>
		<stop  offset="0.9453" style="stop-color:#E2C72C"/>
	</linearGradient>
	<linearGradient id="SVGID_5_" gradientUnits="userSpaceOnUse" x1="183.2797" y1="75.8501" x2="231.7772" y2="75.8501">
		<stop  offset="3.596230e-03" style="stop-color:#20549C"/>
		<stop  offset="0.295" style="stop-color:#205196"/>
		<stop  offset="0.5316" style="stop-color:#205094"/>
		<stop  offset="0.6428" style="stop-color:#1E4C8C"/>
		<stop  offset="0.7277" style="stop-color:#1B457F"/>
		<stop  offset="0.7994" style="stop-color:#173B6D"/>
		<stop  offset="0.8627" style="stop-color:#122E55"/>
		<stop  offset="0.9201" style="stop-color:#0C1E38"/>
		<stop  offset="0.9719" style="stop-color:#050C16"/>
		<stop  offset="1" style="stop-color:#000000"/>
	</linearGradient>
	<path class="st9" d="M206.6,79.8c0,0-2.8,0-23.2,1.6l0,0l0,0c0-0.6,0-5,4.6-7.7c0.8-0.4,15.8-3.5,19.6-3.5c3.9,0,9.9,0.9,14.3,1.9
		c2.6,0.6,4.6,1.2,5.3,1.6c4.3,2.6,4.4,6.7,4.4,7.3l0,0l0,0C231.7,81,219.2,79.7,206.6,79.8z"/>
</g>
<g id="text">
	<g>
		<g>
			<path d="M111.5,161.9v-2.8h7.1v3.5h-0.8L111.5,161.9z M118.7,186.6v3.5h-7.1v-2.8l6.4-0.7H118.7z M114.5,174.1
				c0-5,0-10.1-0.1-15.1h8.5c-0.1,4.9-0.1,10-0.1,15.1v1c0,5.1,0,10.1,0.1,15.1h-8.5c0.1-4.9,0.1-9.9,0.1-15V174.1z M118.7,172.5
				h4.8c3,0,4.4-2,4.4-5.5c0-3.2-1.3-5-4.2-5h-5v-3h7.1c7.7,0,10.1,3.1,10.1,7.2c0,3.5-1.8,6.4-9.1,7.3v-0.4
				c7.8,0.5,10.9,3.3,10.9,8.2c0,3.9-2.4,8.8-13.9,8.8h-5.1v-3h5c3.3,0,5.4-2,5.4-6c0-4.3-1.8-6.1-5.3-6.1h-5.1V172.5z"/>
			<path d="M138.7,187.3l4.4-0.7h0.7l3.8,0.7v2.8h-8.9V187.3z M150.4,159.1h5.1l9.4,31.1h-8.5l-6.7-24.5l1.8-3.3l-7.9,27.8H141
				L150.4,159.1z M146.1,178.6h11.4l1.1,3h-13.2L146.1,178.6z M152.7,187.5l4.6-0.7h3.6l5.5,0.7v2.7h-13.6V187.5z"/>
			<path d="M170,160.8l2.4,1.4l-4.4-0.3v-2.9h10.8l14.2,22v9.1h-4.4L170,160.8z M168,187.3l4.5-0.7h1.4l5.7,0.7v2.8H168V187.3z
				 M171.6,159.1l3,2.9v28.2h-3V159.1z M185.1,159.1h11.5v2.8l-4.3,0.7H191l-5.9-0.7V159.1z M190,159.1h3v31.1l-3-3.3V159.1z"/>
			<path d="M198.8,161.9v-2.8h7.1v3.5h-0.8L198.8,161.9z M205.9,186.6v3.5h-7.1v-2.8l6.4-0.7H205.9z M201.7,173.8
				c0-4.9,0-9.9-0.1-14.8h8.6c-0.1,4.8-0.1,9.8-0.1,14.8v1.5c0,5,0,9.9,0.1,14.8h-8.6c0.1-4.8,0.1-9.8,0.1-14.8V173.8z M205.9,187.2
				h4.9c4.1,0,6.9-4.5,6.9-12.6c0-8.2-2.7-12.5-6.9-12.5h-4.8v-3h5.5c9.4,0,14.7,6.1,14.7,15.4c0,9.8-5.8,15.7-15.5,15.7h-4.7V187.2
				z"/>
			<path d="M229,175.6h11.4v4.8H229V175.6z"/>
			<path d="M242.5,187.3l4.4-0.7h0.7l3.8,0.7v2.8h-8.9V187.3z M254.3,159.1h5.1l9.4,31.1h-8.5l-6.7-24.5l1.8-3.3l-7.9,27.8h-2.7
				L254.3,159.1z M249.9,178.6h11.4l1.1,3h-13.2L249.9,178.6z M256.5,187.5l4.6-0.7h3.6l5.5,0.7v2.7h-13.6V187.5z"/>
			<path d="M272,161.9v-2.8h14.3v2.8l-6.5,0.7h-1.4L272,161.9z M279.8,186.6l6.5,0.7v2.8H272v-2.8l6.4-0.7H279.8z M275,173.8
				c0-4.9,0-9.9-0.1-14.8h8.6c-0.1,4.8-0.1,9.8-0.1,14.8v1.5c0,5,0,9.9,0.1,14.8h-8.6c0.1-4.8,0.1-9.8,0.1-14.8V173.8z"/>
			<path d="M288.7,161.9v-2.8h7.1v3.5h-0.8L288.7,161.9z M295.8,186.6v3.5h-7.1v-2.8l6.4-0.7H295.8z M291.7,173.8
				c0-4.9,0-9.9-0.1-14.8h8.6c-0.1,4.8-0.1,9.8-0.1,14.8v1.5c0,5,0,9.9,0.1,14.8h-8.6c0.1-4.8,0.1-9.8,0.1-14.8V173.8z M295.8,187.2
				h4.9c4.1,0,6.9-4.5,6.9-12.6c0-8.2-2.7-12.5-6.9-12.5h-4.8v-3h5.5c9.4,0,14.7,6.1,14.7,15.4c0,9.8-5.8,15.7-15.5,15.7h-4.7V187.2
				z"/>
		</g>
	</g>
	<g>
		<g>
			<path d="M170.8,218.7v-1.6h5.2v2.1h-0.4L170.8,218.7z M176,237.8v2.1h-5.2v-1.6l4.7-0.5H176z M173.8,227.9c0-3.6,0-7.2-0.1-10.8
				h4.6c-0.1,3.5-0.1,7.1-0.1,10.8v1c0,3.9,0,7.5,0.1,11.1h-4.6c0.1-3.5,0.1-7.1,0.1-10.7V227.9z M176,227.2h3.6
				c3.6,0,5.2-1.4,5.2-4.3c0-2.9-1.5-4-4.7-4H176v-1.8h5.3c5.3,0,7.8,2.3,7.8,5.5c0,2.6-1.7,4.9-6.8,5.5v-0.3c5.7,0.4,8,2.7,8,5.8
				c0,3-2.3,6.3-9.9,6.3H176v-1.8h3.9c3.8,0,5.8-1.6,5.8-4.6c0-3.2-1.9-4.7-6-4.7H176V227.2z"/>
			<path d="M192.9,218.7v-1.6h5.2v2.1h-0.4L192.9,218.7z M198.1,237.8v2.1h-5.2v-1.6l4.7-0.5H198.1z M195.8,227.8
				c0-3.5,0-7.1-0.1-10.7h4.7c-0.1,3.5-0.1,7.1-0.1,10.7v1.2c0,3.8,0,7.4,0.1,11h-4.7c0.1-3.5,0.1-7.1,0.1-10.7V227.8z M207,217.1
				l2,1.8h-11v-1.8h12.2l0.2,6h-2.4L207,217.1z M205.7,229.1h-7.7v-1.8h7.7V229.1z M211.1,233.9l-0.2,6h-12.9v-1.8h11.7l-2,1.8l1-6
				H211.1z M204.7,227.8l0.5-3.5h1.8v7.8h-1.8l-0.5-3.6V227.8z"/>
			<path d="M213.5,218.7v-1.6h5.2v2.1h-0.4L213.5,218.7z M218.7,237.8v2.1h-5.2v-1.6l4.7-0.5H218.7z M216.4,227.8
				c0-3.5,0-7.1-0.1-10.7h4.7c-0.1,3.5-0.1,7.1-0.1,10.7v1.2c0,3.8,0,7.4,0.1,11h-4.7c0.1-3.5,0.1-7.1,0.1-10.7V227.8z M227.6,217.1
				l2,1.8h-11v-1.8h12.2l0.2,6h-2.4L227.6,217.1z M226.4,229.1h-7.7v-1.8h7.7V229.1z M231.8,233.9l-0.2,6h-12.9v-1.8h11.7l-2,1.8
				l1-6H231.8z M225.3,227.8l0.5-3.5h1.8v7.8h-1.8l-0.5-3.6V227.8z"/>
			<path d="M234.1,218.7v-1.6h5.2v2.1h-0.4L234.1,218.7z M239.8,237.8l4.7,0.5v1.6h-10.4v-1.6l4.7-0.5H239.8z M237.1,227.8
				c0-3.5,0-7.1-0.1-10.7h4.6c-0.1,3.5-0.1,7-0.1,10.9v1c0,3.8,0,7.4,0.1,10.9H237c0.1-3.5,0.1-7.1,0.1-10.7V227.8z M239.3,227.7
				h4.2c3.6,0,5-2,5-4.5c0-2.8-1.5-4.3-4.7-4.3h-4.5v-1.8h5.2c5.3,0,8.4,2.2,8.4,5.9c0,2.8-2.1,5.5-7.5,5.8l0.1-0.3
				c4,0.2,5.4,1.7,6.2,5.1l1.3,5.5l-2-1.2l4.4,0.5v1.6c-1.1,0.3-1.8,0.4-3.1,0.4c-2.5,0-3.9-0.7-4.2-2.8l-1-4.8
				c-0.5-2.5-1.6-3.3-4-3.3h-3.6V227.7z"/>
		</g>
	</g>
	<g>
		<g>
			<path class="st10" d="M167.1,216.7v-1.6h5.2v2.1h-0.4L167.1,216.7z M172.3,235.8v2.1h-5.2v-1.6l4.7-0.5H172.3z M170.1,225.9
				c0-3.6,0-7.2-0.1-10.8h4.6c-0.1,3.5-0.1,7.1-0.1,10.8v1c0,3.9,0,7.5,0.1,11.1h-4.6c0.1-3.5,0.1-7.1,0.1-10.7V225.9z M172.3,225.2
				h3.6c3.6,0,5.2-1.4,5.2-4.3c0-2.9-1.5-4-4.7-4h-4.1v-1.8h5.3c5.3,0,7.8,2.3,7.8,5.5c0,2.6-1.7,4.9-6.8,5.5v-0.3
				c5.7,0.4,8,2.7,8,5.8c0,3-2.3,6.3-9.9,6.3h-4.4v-1.8h3.9c3.8,0,5.8-1.6,5.8-4.6c0-3.2-1.9-4.7-6-4.7h-3.7V225.2z"/>
			<path class="st10" d="M189.1,216.7v-1.6h5.2v2.1h-0.4L189.1,216.7z M194.3,235.8v2.1h-5.2v-1.6l4.7-0.5H194.3z M192.1,225.8
				c0-3.5,0-7.1-0.1-10.7h4.7c-0.1,3.5-0.1,7.1-0.1,10.7v1.2c0,3.8,0,7.4,0.1,11H192c0.1-3.5,0.1-7.1,0.1-10.7V225.8z M203.3,215.1
				l2,1.8h-11v-1.8h12.2l0.2,6h-2.4L203.3,215.1z M202,227.1h-7.7v-1.8h7.7V227.1z M207.4,231.9l-0.2,6h-12.9v-1.8H206l-2,1.8l1-6
				H207.4z M200.9,225.8l0.5-3.5h1.8v7.8h-1.8l-0.5-3.6V225.8z"/>
			<path class="st10" d="M209.8,216.7v-1.6h5.2v2.1h-0.4L209.8,216.7z M215,235.8v2.1h-5.2v-1.6l4.7-0.5H215z M212.7,225.8
				c0-3.5,0-7.1-0.1-10.7h4.7c-0.1,3.5-0.1,7.1-0.1,10.7v1.2c0,3.8,0,7.4,0.1,11h-4.7c0.1-3.5,0.1-7.1,0.1-10.7V225.8z M223.9,215.1
				l2,1.8h-11v-1.8h12.2l0.2,6H225L223.9,215.1z M222.6,227.1H215v-1.8h7.7V227.1z M228.1,231.9l-0.2,6H215v-1.8h11.7l-2,1.8l1-6
				H228.1z M221.6,225.8l0.5-3.5h1.8v7.8h-1.8l-0.5-3.6V225.8z"/>
			<path class="st10" d="M230.4,216.7v-1.6h5.2v2.1h-0.4L230.4,216.7z M236,235.8l4.7,0.5v1.6h-10.4v-1.6l4.7-0.5H236z M233.4,225.8
				c0-3.5,0-7.1-0.1-10.7h4.6c-0.1,3.5-0.1,7-0.1,10.9v1c0,3.8,0,7.4,0.1,10.9h-4.6c0.1-3.5,0.1-7.1,0.1-10.7V225.8z M235.6,225.7
				h4.2c3.6,0,5-2,5-4.5c0-2.8-1.5-4.3-4.7-4.3h-4.5v-1.8h5.2c5.3,0,8.4,2.2,8.4,5.9c0,2.8-2.1,5.5-7.5,5.8l0.1-0.3
				c4,0.2,5.4,1.7,6.2,5.1l1.3,5.5l-2-1.2l4.4,0.5v1.6c-1.1,0.3-1.8,0.4-3.1,0.4c-2.5,0-3.9-0.7-4.2-2.8l-1-4.8
				c-0.5-2.5-1.6-3.3-4-3.3h-3.6V225.7z"/>
		</g>
	</g>
	<text transform="matrix(1 0 0 1 189.6318 128.5823)" class="st11 st12 st13">1920</text>
	<circle class="st14" cx="313.3" cy="159" r="3.8"/>
	<text transform="matrix(1 0 0 1 309.7754 161.8531)" class="st15 st16">R</text>
	<text transform="matrix(0.9038 -0.428 0.428 0.9038 148.0704 85.902)" class="st17 st18 st19">D</text>
	<text transform="matrix(0.8497 -0.5272 0.5272 0.8497 137.6096 92.4461)" class="st17 st18 st19">I</text>
	<text transform="matrix(0.776 -0.6308 0.6308 0.776 121.2217 105.383)" class="st17 st18 st19">A</text>
	<text transform="matrix(0.7143 -0.6998 0.6998 0.7143 113.7431 109.3272)" class="st17 st18 st19">-</text>
	<text transform="matrix(0.6086 -0.7934 0.7934 0.6086 103.228 130.335)" class="st17 st18 st19">D</text>
	<text transform="matrix(0.4515 -0.8923 0.8923 0.4515 94.5586 147.6266)" class="st17 st18 st19">N</text>
	<text transform="matrix(0.3295 -0.9442 0.9442 0.3295 87.214 167.0533)" class="st17 st18 st19">A</text>
	<text transform="matrix(0.1458 -0.9893 0.9893 0.1458 84.6781 184.9342)" class="st17 st18 st19">B</text>
	<text transform="matrix(0.3062 0.952 -0.952 0.3062 65.4345 218.8064)" class="st17 st18 st19">B</text>
	<text transform="matrix(0.3222 0.9467 -0.9467 0.3222 71.8516 239.9197)" class="st17 st18 st19">L</text>
	<text transform="matrix(0.5042 0.8636 -0.8636 0.5042 79.2956 260.6535)" class="st17 st18 st19">A</text>
	<text transform="matrix(0.6209 0.7839 -0.7839 0.6209 90.5205 280.5424)" class="st17 st18 st19">N</text>
	<text transform="matrix(0.688 0.7258 -0.7258 0.688 105.288 299.6376)" class="st17 st18 st19">D</text>
	<text transform="matrix(0.8575 0.5144 -0.5144 0.8575 141.229 325.7575)" class="st17 st18 st19">A</text>
	<text transform="matrix(0.9369 0.3497 -0.3497 0.9369 160.7062 336.9799)" class="st17 st18 st19">D</text>
	<text transform="matrix(0.9905 0.1373 -0.1373 0.9905 184.3741 344.3843)" class="st17 st18 st19">H</text>
	<text transform="matrix(0.9919 -0.1266 0.1266 0.9919 212.6489 347.3297)" class="st17 st18 st19">E</text>
	<text transform="matrix(0.9781 -0.2081 0.2081 0.9781 234.1319 344.886)" class="st17 st18 st19">S</text>
	<text transform="matrix(0.9048 -0.4258 0.4258 0.9048 255.7652 340.4294)" class="st17 st18 st19">I</text>
	<text transform="matrix(0.8925 -0.4511 0.4511 0.8925 268.4344 335.1642)" class="st17 st18 st19">V</text>
	<text transform="matrix(0.5879 -0.8089 0.8089 0.5879 321.8519 296.7688)" class="st17 st18 st19">B</text>
	<text transform="matrix(0.4287 -0.9035 0.9035 0.4287 334.0002 280.5265)" class="st17 st18 st19">A</text>
	<text transform="matrix(0.381 -0.9246 0.9246 0.381 345.9333 260.4832)" class="st17 st18 st19">N</text>
	<text transform="matrix(0.1467 -0.9892 0.9892 0.1467 355.9192 236.5394)" class="st17 st18 st19">D</text>
	<text transform="matrix(3.500000e-03 -1 1 3.500000e-03 359.3381 214.3392)" class="st17 st18 st19">A</text>
	<text transform="matrix(-0.1561 -0.9877 0.9877 -0.1561 359.8949 191.2858)" class="st17 st18 st19">G</text>
	<text transform="matrix(-0.257 -0.9664 0.9664 -0.257 355.871 166.0709)" class="st17 st18 st19">E</text>
	<text transform="matrix(-0.4129 -0.9108 0.9108 -0.4129 349.2348 145.1079)" class="st17 st18 st19">S</text>
	<text transform="matrix(0.925 0.3799 -0.3799 0.925 252.0695 75.4053)" class="st17 st18 st19">B</text>
	<text transform="matrix(0.865 0.5018 -0.5018 0.865 269.8971 82.4585)" class="st17 st18 st19">E</text>
	<text transform="matrix(0.7281 0.6855 -0.6855 0.7281 286.6073 92.4815)" class="st17 st18 st19">E</text>
	<text transform="matrix(0.6171 0.7869 -0.7869 0.6171 302.1251 105.7104)" class="st17 st18 st19">R</text>
	<g>
		<g>
			<path class="st20" d="M200.8,75.7c0.4,0.1,0.7,0.3,0.7,0.7c0,0.3-0.1,0.5-0.4,0.6c-0.2,0.1-0.4,0.2-0.7,0.2h-1V77
				c0.3,0,0.3-0.1,0.3-0.4V75c0-0.3,0-0.4-0.3-0.4v-0.2h1.1c0.3,0,0.5,0,0.6,0.1c0.1,0.1,0.2,0.3,0.2,0.5
				C201.3,75.4,201.1,75.6,200.8,75.7z M200.4,75.6c0.3,0,0.5-0.2,0.5-0.5c0-0.4-0.2-0.5-0.4-0.5c-0.1,0-0.1,0-0.2,0
				c0,0,0,0.1,0,0.2v0.8H200.4z M200.2,76.6c0,0.3,0.1,0.4,0.3,0.4c0.2,0,0.4-0.2,0.4-0.6c0-0.4-0.2-0.6-0.6-0.6h-0.1V76.6z"/>
			<path class="st20" d="M202.9,77.1V77c0.2,0,0.2-0.1,0.2-0.3c0-0.1-0.1-0.3-0.1-0.5h-0.7c0,0.1-0.1,0.3-0.1,0.4
				c-0.1,0.3,0,0.3,0.3,0.3v0.2h-0.9V77c0.2,0,0.3-0.1,0.4-0.4l0.8-2.1l0.2,0c0.2,0.7,0.5,1.5,0.7,2.1c0.1,0.4,0.2,0.4,0.4,0.4v0.2
				H202.9z M202.6,75.2c-0.1,0.3-0.2,0.6-0.3,0.9h0.6L202.6,75.2z"/>
			<path class="st20" d="M206.6,74.6c-0.2,0-0.3,0.1-0.3,0.3c0,0.2,0,0.3,0,0.7v1.6H206l-1.5-2.1V76c0,0.4,0,0.5,0,0.6
				c0,0.2,0.1,0.3,0.4,0.3v0.2H204V77c0.2,0,0.3-0.1,0.3-0.3c0-0.1,0-0.3,0-0.7v-1c0-0.1,0-0.2-0.1-0.3c-0.1-0.1-0.2-0.1-0.3-0.1
				v-0.2h0.7l1.4,1.8v-0.7c0-0.4,0-0.5,0-0.6c0-0.2-0.1-0.3-0.4-0.3v-0.2h0.9V74.6z"/>
			<path class="st20" d="M207.9,74.4c0.5,0,0.8,0.1,1,0.4c0.2,0.2,0.3,0.5,0.3,0.9c0,0.5-0.2,0.8-0.5,1.1c-0.3,0.2-0.6,0.3-1,0.3h-1
				V77c0.3,0,0.3-0.1,0.3-0.4V75c0-0.3,0-0.4-0.3-0.4v-0.2H207.9z M207.6,76.5c0,0.3,0.1,0.4,0.3,0.4c0.5,0,0.8-0.4,0.8-1.2
				c0-0.4-0.1-0.7-0.3-0.9c-0.2-0.2-0.3-0.2-0.6-0.2c-0.1,0-0.2,0-0.2,0.1c0,0,0,0.1,0,0.2V76.5z"/>
			<path class="st20" d="M210.5,76.3h-0.9l0-0.3h0.9L210.5,76.3z"/>
			<path class="st20" d="M212,77.1V77c0.2,0,0.2-0.1,0.2-0.3c0-0.1-0.1-0.3-0.1-0.5h-0.7c0,0.1-0.1,0.3-0.1,0.4
				c-0.1,0.3,0,0.3,0.3,0.3v0.2h-0.9V77c0.2,0,0.3-0.1,0.4-0.4l0.8-2.1l0.2,0c0.2,0.7,0.5,1.5,0.7,2.1c0.1,0.4,0.2,0.4,0.4,0.4v0.2
				H212z M211.7,75.2c-0.1,0.3-0.2,0.6-0.3,0.9h0.6L211.7,75.2z"/>
			<path class="st20" d="M213.1,77.1V77c0.3,0,0.3-0.1,0.3-0.4V75c0-0.3,0-0.4-0.3-0.4v-0.2h1.1v0.2c-0.3,0-0.3,0.1-0.3,0.4v1.6
				c0,0.3,0,0.4,0.3,0.4v0.2H213.1z"/>
			<path class="st20" d="M215.6,74.4c0.5,0,0.8,0.1,1,0.4c0.2,0.2,0.3,0.5,0.3,0.9c0,0.5-0.2,0.8-0.5,1.1c-0.3,0.2-0.6,0.3-1,0.3h-1
				V77c0.3,0,0.3-0.1,0.3-0.4V75c0-0.3,0-0.4-0.3-0.4v-0.2H215.6z M215.3,76.5c0,0.3,0.1,0.4,0.3,0.4c0.5,0,0.8-0.4,0.8-1.2
				c0-0.4-0.1-0.7-0.3-0.9c-0.2-0.2-0.3-0.2-0.6-0.2c-0.1,0-0.2,0-0.2,0.1c0,0,0,0.1,0,0.2V76.5z"/>
		</g>
	</g>
</g>
</svg>
