<?xml version="1.0" encoding="utf-8"?>
<!-- Generator: Adobe Illustrator 24.1.2, SVG Export Plug-In . SVG Version: 6.00 Build 0)  -->
<svg version="1.1" id="圖層_1" xmlns="http://www.w3.org/2000/svg" xmlns:xlink="http://www.w3.org/1999/xlink" x="0px" y="0px"
	 viewBox="0 0 80 150" style="enable-background:new 0 0 80 150;" xml:space="preserve">
<style type="text/css">
	.st0{fill:#FFFFFF;}
</style>
<path class="st0" d="M63,70.2H44.8V52c0-2-1.6-3.6-3.6-3.6h-2.4c-2,0-3.6,1.6-3.6,3.6v18.2H17c-2,0-3.6,1.6-3.6,3.6v2.4
	c0,2,1.6,3.6,3.6,3.6h18.2V98c0,2,1.6,3.6,3.6,3.6h2.4c2,0,3.6-1.6,3.6-3.6V79.8H63c2,0,3.6-1.6,3.6-3.6v-2.4
	C66.7,71.8,65,70.2,63,70.2z"/>
</svg>
