<?xml version="1.0" encoding="utf-8"?>
<!-- Generator: Adobe Illustrator 24.1.2, SVG Export Plug-In . SVG Version: 6.00 Build 0)  -->
<svg version="1.1" xmlns="http://www.w3.org/2000/svg" xmlns:xlink="http://www.w3.org/1999/xlink" x="0px" y="0px"
	 viewBox="0 0 960 750" style="enable-background:new 0 0 960 750;" xml:space="preserve">
<style type="text/css">
	.st0{fill:#033232;}
	.st1{fill:#FBAF4C;}
	.st2{fill:#BF232C;}
	.st3{fill:#DBDCDC;}
	.st4{fill:#DE222D;}
	.st5{fill:#E14237;}
	.st6{fill:#FFFFFF;}
	.st7{fill:#9E1E25;}
	.st8{fill:#EF5F43;}
	.st9{font-family:'Montserrat-ExtraBold';}
	.st10{font-size:38px;}
	.st11{fill:#84CDC9;}
	.st12{font-size:48px;}
	.st13{fill:#DE222E;}
	.st14{font-size:90px;}
	.st15{font-size:66.4891px;}
</style>
<g id="圖層_2">
	<rect class="st0" width="960" height="750"/>
	<rect y="49" class="st1" width="960" height="652"/>
</g>
<g id="圖層_3">
	<polyline class="st2" points="0,330.7 232.5,304.1 252.8,477.9 0,510.9 0,330.7 	"/>
	<polygon class="st0" points="290,518.9 271,479.9 814,417.9 814,499.9 277,560.9 	"/>
	<polygon class="st3" points="40,252.9 73.5,278.4 70.4,249.2 	"/>
	<polygon class="st4" points="777,226.9 723,322.9 86,401.9 67,215.9 699,148.9 	"/>
	<polygon class="st5" points="699,148.9 79.3,336.1 67,215.9 	"/>
	<polygon class="st6" points="31,170.9 526,111.9 517,153.9 536,193.9 40,252.9 	"/>
	<polygon class="st7" points="241.3,382.7 252.8,477.9 86,401.9 	"/>
	<circle class="st8" cx="86.5" cy="207.2" r="10.2"/>
	<circle class="st8" cx="448.8" cy="164.2" r="10.2"/>
</g>
<g id="圖層_4">
	<text transform="matrix(0.9932 -0.1167 0.1167 0.9932 110.1055 217.3304)" class="st8 st9 st10">SPECIAL OFFER</text>
	<text transform="matrix(0.9939 -0.1103 0.1103 0.9939 305.9939 531.2386)" class="st11 st9 st12">SALES PROMOTION</text>
	<text transform="matrix(0.9923 -0.1238 0.1238 0.9923 265.2059 462.6629)" class="st13 st9 st14">EVERYTHING</text>
	<text transform="matrix(0.9932 -0.1167 0.1167 0.9932 96.8292 331.378)" class="st6 st9 st15">BUY 2 GET 1 FREE!</text>
</g>
<g id="圖層_5">
	
		<image style="overflow:visible;" width="1000" height="1000" xlink:href="../../../../Downloads/pngwave.png"  transform="matrix(0.2669 0 0 0.243 0 444.4772)">
	</image>
	
		<image style="overflow:visible;" width="617" height="470" xlink:href="../../../截圖 2020-06-08 下午5.39.46.png"  transform="matrix(0.3662 0 0 0.3662 716.6521 515.9391)">
	</image>
</g>
</svg>
