<?xml version="1.0" encoding="utf-8"?>
<!-- Generator: Adobe Illustrator 24.1.2, SVG Export Plug-In . SVG Version: 6.00 Build 0)  -->
<svg version="1.1" id="圖層_1" xmlns="http://www.w3.org/2000/svg" xmlns:xlink="http://www.w3.org/1999/xlink" x="0px" y="0px"
	 viewBox="0 0 60 60" style="enable-background:new 0 0 60 60;" xml:space="preserve">
<style type="text/css">
	.st0{display:none;}
	.st1{fill:#57595B;}
	.st2{display:inline;}
	.st3{fill:#FFFFFF;}
</style>
<g class="st0">
	<path class="st1" d="M54.1,30c0,13.3-10.7,24-24,24c-13.3,0-24-10.7-24-24c0-13.3,10.7-24,24-24C43.4,6,54.1,16.7,54.1,30z"/>
	<g class="st2">
		<path class="st3" d="M21.8,58.8h11.6c0,0,0-16,0-28.9h8.6L43,18.3h-9.2v-4.6c0-2.3,1.5-2.8,2.6-2.8c1.1,0,6.5,0,6.5,0V1l-8.9,0
			C24,1,21.7,8.4,21.7,13.1v5.2H16v11.6h5.8C21.8,43,21.8,58.8,21.8,58.8z"/>
	</g>
</g>
<g>
	<path class="st3" d="M58.3,7.4c-2.4,1.4-5,2.4-7.8,2.9c-2.2-2.4-5.4-3.8-9-3.8c-6.8,0-12.3,5.4-12.3,12.1c0,0.9,0.1,1.9,0.3,2.8
		C19.3,20.8,10.3,16,4.2,8.7c-1.1,1.8-1.7,3.9-1.7,6.1c0,4.2,2.2,7.9,5.5,10.1c-2-0.1-3.9-0.6-5.6-1.5c0,0,0,0.1,0,0.2
		c0,5.9,4.2,10.8,9.9,11.9c-1,0.3-2.1,0.4-3.2,0.4c-0.8,0-1.6-0.1-2.3-0.2c1.6,4.8,6.1,8.3,11.5,8.4c-4.2,3.2-9.5,5.2-15.3,5.2
		c-1,0-2-0.1-2.9-0.2c5.5,3.4,11.9,5.4,18.9,5.4c22.6,0,35-18.5,35-34.5c0-0.5,0-1,0-1.6c2.4-1.7,4.5-3.8,6.1-6.3
		c-2.2,1-4.6,1.6-7.1,1.9C55.5,12.6,57.4,10.2,58.3,7.4z"/>
</g>
</svg>
