<?xml version="1.0" encoding="utf-8"?>
<!-- Generator: Adobe Illustrator 24.1.2, SVG Export Plug-In . SVG Version: 6.00 Build 0)  -->
<svg version="1.1" xmlns="http://www.w3.org/2000/svg" xmlns:xlink="http://www.w3.org/1999/xlink" x="0px" y="0px"
	 viewBox="0 0 180 125" style="enable-background:new 0 0 180 125;" xml:space="preserve">
<style type="text/css">
	.st0{display:none;}
	.st1{display:inline;}
	.st2{fill:#30459E;}
	.st3{fill:#DB2A72;}
	.st4{display:inline;fill:#1EAF7B;}
	.st5{fill:#1EAF7B;}
	.st6{fill:#FFFFFF;}
</style>
<g id="圖層_1" class="st0">
	<g class="st1">
		<path class="st2" d="M129.8,64.3c0,0-36.1-3.8-38.6,30.5c-2.6-34.3-38.6-30.5-38.6-30.5s-4.1,38.8,38.6,38.8
			C134.2,103.1,129.8,64.3,129.8,64.3z"/>
		<path class="st2" d="M90,75.5c0.4,0.6,0.7,1.2,1.1,1.8c0.3-0.6,0.7-1.2,1.1-1.8c2.9-4.5,6.9-8.1,11.7-10.8
			c6.6-3.7,13.8-4.9,18.9-5.3c-2.9-14.9-15.6-25.1-15.6-25.1S91.5,47.1,91.1,64.9C90.8,47.1,75,34.3,75,34.3S62.3,44.5,59.4,59.4
			c5.1,0.4,12.3,1.6,18.9,5.3C83.2,67.4,87.1,71,90,75.5z"/>
		<path class="st2" d="M91.1,46.7c3.7-6.9,8.5-12,11.1-14.5c-5.2-8-11.1-12.8-11.1-12.8S85.2,24.2,80,32.2
			C82.6,34.7,87.5,39.8,91.1,46.7L91.1,46.7z"/>
	</g>
</g>
<g id="圖層_2" class="st0">
	<g class="st1">
		<path class="st3" d="M110.3,28.4c2.2,3.8,0.4,5.3-1.4,6.3c-1.8,1-3.9,1.4-6.1-2.5c-2.2-3.8-2.3-12-2.3-12S108.1,24.6,110.3,28.4z"
			/>
		<path class="st3" d="M119.8,39.4c-1.9,4-4.1,3.4-6,2.5c-1.8-0.9-3.4-2.5-1.5-6.4c1.9-4,8.5-8.7,8.5-8.7S121.6,35.4,119.8,39.4z"/>
		<path class="st3" d="M121,54.4c-2.9,3.4-4.8,2.2-6.4,0.8c-1.6-1.3-2.6-3.2,0.2-6.6c2.8-3.4,10.5-6.2,10.5-6.2S123.9,51.1,121,54.4
			z"/>
		<path class="st3" d="M108.3,50c3.9,2.3,3.1,4.4,2.1,6.2c-1,1.8-2.7,3.1-6.7,0.9c-3.9-2.3-8.2-9.4-8.2-9.4S104.4,47.7,108.3,50z"/>
		<path class="st3" d="M115.9,69.9c-3.8,2.2-5.3,0.4-6.3-1.4c-1-1.8-1.4-3.9,2.5-6.1c3.8-2.2,12-2.3,12-2.3S119.7,67.7,115.9,69.9z"
			/>
		<path class="st3" d="M106,61.8c2.8,3.6,1.3,5.3-0.4,6.5c-1.6,1.3-3.7,1.9-6.5-1.7C96.3,63.1,94.9,55,94.9,55S103.2,58.3,106,61.8z
			"/>
		<path class="st3" d="M107.9,82.9c-4.3,0.8-5.1-1.4-5.5-3.4c-0.3-2,0-4.2,4.4-4.9c4.4-0.8,12,1.9,12,1.9S112.2,82.1,107.9,82.9z"/>
		<path class="st3" d="M100.8,72.1c1.9,4.1,0,5.4-1.9,6.3c-1.9,0.8-4,1-5.9-3.1c-1.9-4.1-1.4-12.4-1.4-12.4S98.9,68,100.8,72.1z"/>
		<path class="st3" d="M92.1,80.1c0.8,4.5-1.4,5.2-3.4,5.6c-2,0.3-4.2-0.1-4.9-4.5c-0.8-4.5,1.9-12.3,1.9-12.3S91.3,75.6,92.1,80.1z
			"/>
		<path class="st3" d="M96.3,92.9c-4.5-0.7-4.5-3-4.2-5c0.3-2,1.4-3.9,5.9-3.3c4.5,0.7,11.1,5.7,11.1,5.7S100.8,93.6,96.3,92.9z"/>
		<path class="st3" d="M82.3,87.3c0.3,4.5-1.9,5.1-4,5.2c-2,0.1-4.1-0.5-4.5-5C73.6,82.9,77,75.4,77,75.4S82,82.8,82.3,87.3z"/>
		<path class="st3" d="M83.5,100.5c-4.3-1.5-3.9-3.8-3.2-5.7c0.7-1.9,2.1-3.6,6.4-2.1c4.3,1.5,9.8,7.7,9.8,7.7S87.7,102,83.5,100.5z
			"/>
		<path class="st3" d="M107,37.7c4.3,1.2,4.1,3.5,3.6,5.4c-0.6,2-1.8,3.7-6.2,2.6c-4.4-1.2-10.3-6.9-10.3-6.9S102.7,36.5,107,37.7z"
			/>
		<path class="st3" d="M76.7,94.9c0,0-20.5,8.1-33.4,5.2c-1,1.2,1.4,2.9,1.4,2.9S63.4,103.3,76.7,94.9z"/>
	</g>
</g>
<g id="圖層_3" class="st0">
	<g class="st1">
		<g class="st0">
			<path class="st4" d="M86.5,46.6L88,31.6c0.3-3,3.7-4.5,6.1-2.8l8.4,5.9l5.3,6.2L83.1,59.1L86.5,46.6z"/>
			<g class="st1">
				<path class="st5" d="M104.6,30.3c0-6,5-10.8,11.1-10.5c5.7,0.3,10,5,10,10.7v30h-5.2V30.3c0-3.1-2.6-5.6-5.8-5.4
					c-2.8,0.2-5,2.6-5,5.5v22h-5.2V30.3z"/>
			</g>
			<path class="st4" d="M64.7,75.7h40.6v6.7H64.7V75.7z"/>
			<path class="st4" d="M106,37.3l-3.5-2.6c-1.6-1.2-3.9-1-5.3,0.5l-20,21.3c-1.4,1.5-1.4,3.7-0.1,5.3l2.9,3.4l11.1-1.2l18.3-18.3
				L106,37.3z"/>
			<path class="st4" d="M131.9,56.6l-7.4,1.9l-22.8,22.8l-1,8.1c2.7,2.7,7.3,2.7,10-0.1l21.6-22.5C135.1,63.8,134.8,59.2,131.9,56.6
				L131.9,56.6z"/>
			<g class="st1">
				<path class="st5" d="M106.1,83.6c0,0-1.2-1.4-3.1-3.6l-1.3,1.3l-1,8.1c2.7,2.7,7.3,2.7,10-0.1l5-5.3
					C112.9,86.4,108.7,86.2,106.1,83.6L106.1,83.6z"/>
				<path class="st5" d="M82,55.4c-0.7-0.9-1-1.9-0.9-3l-3.8,4.1c-1.4,1.5-1.4,3.7-0.1,5.3l2.9,3.4l9.4-1C85.3,59.2,82,55.4,82,55.4
					L82,55.4z"/>
				<g id="XMLID_246_">
					<g>
						<path class="st5" d="M131.9,56.6L131.9,56.6l-31.2,32.7l0,0c-0.1-0.1-0.3-0.3-0.4-0.4L80,65.1l26-27.8l25.4,18.9
							C131.6,56.4,131.7,56.5,131.9,56.6L131.9,56.6z"/>
					</g>
				</g>
				<path class="st5" d="M106.1,83.6C106,83.5,92,67.1,85.4,59.3L80,65.1L100.3,89c0.1,0.1,0.3,0.3,0.4,0.4l0,0L106.1,83.6
					C106.2,83.6,106.1,83.6,106.1,83.6L106.1,83.6z"/>
				<g id="XMLID_247_">
					<g>
						<g>
							<path class="st5" d="M107.3,54c1.5,1.5,1.5,4,0,5.5l-2,2l-1.5-1.5c-1.5-1.5-1.5-4,0-5.5l1.5-1.5c0.3-0.3,0.7-0.3,1,0
								L107.3,54z"/>
							<path class="st5" d="M105.3,61.5l-4,4c-1.5,1.5-4,1.5-5.5,0l-2.6-2.6c-0.3-0.3-0.3-0.7,0-1l3.5-3.5c1.5-1.5,4-1.5,5.5,0
								l1.5,1.5L105.3,61.5z"/>
						</g>
					</g>
				</g>
				<path class="st5" d="M64.7,75.7h8.7v6.7h-8.7V75.7z"/>
				<path class="st5" d="M63.8,88.5h-2.1c-0.6,0-1-0.5-1-1V70.6c0-0.6,0.5-1,1-1h2.1c3.4,0,6.1,2.7,6.1,6.1v6.7
					C70,85.8,67.2,88.5,63.8,88.5L63.8,88.5z"/>
			</g>
		</g>
		<g>
			<path class="st5" d="M135.5,61.2c-0.2-2.4-1.4-4.5-3.3-6l-5.2-3.9v-8.5c0-0.7-0.6-1.3-1.3-1.3c-0.7,0-1.3,0.6-1.3,1.3v6.6
				l-2.6-1.9V30.3c0-1.8-0.8-3.6-2.1-4.9c-1.4-1.3-3.2-1.9-5-1.8c-3.5,0.3-6.2,3.2-6.2,6.8v7.2l-2.6-1.9v-5.3c0-2.6,1-4.9,2.9-6.7
				c1.9-1.8,4.3-2.7,6.8-2.6c4.9,0.2,8.8,4.4,8.8,9.4v6.9c0,0.7,0.6,1.3,1.3,1.3s1.3-0.6,1.3-1.3v-6.9c0-6.4-5-11.7-11.3-12
				c-3.3-0.2-6.4,1-8.7,3.3c-2.4,2.3-3.7,5.3-3.7,8.6v3.4l-8.5-6c-1.5-1.1-3.5-1.3-5.1-0.5s-2.8,2.3-3,4.2l-1.5,14.6l-3.8,4.1
				c-0.5,0.5-0.5,1.3,0.1,1.8c0.5,0.5,1.3,0.5,1.8-0.1l14.9-15.8c0.9-1,2.4-1.1,3.5-0.3l2.4,1.8L80,63.2l-1.9-2.3
				c-0.9-1-0.8-2.6,0.1-3.6l1.3-1.4c0.5-0.5,0.5-1.3-0.1-1.8c-0.5-0.5-1.3-0.5-1.8,0.1l-1.3,1.4c-1.8,2-1.9,5-0.2,7l10.1,11.9H71.1
				c-0.6-3.5-3.7-6.1-7.3-6.1h-2.1c-1.3,0-2.3,1-2.3,2.3v16.9c0,1.3,1,2.3,2.3,2.3h2.1c3.7,0,6.7-2.7,7.3-6.1h23l5.2,6.1
				c1.5,1.8,3.7,2.8,6.1,2.9c0.1,0,0.2,0,0.2,0c2.3,0,4.4-0.9,6-2.6l21.6-22.5C134.9,65.9,135.7,63.5,135.5,61.2L135.5,61.2z
				 M68.7,82.4c0,2.7-2.2,4.8-4.8,4.8H62V70.9h1.8c2.7,0,4.8,2.2,4.8,4.8L68.7,82.4L68.7,82.4z M111.1,30.4c0-2.2,1.7-4,3.8-4.2
				c1.1-0.1,2.2,0.3,3.1,1.1c0.8,0.8,1.3,1.9,1.3,3v15.3l-8.1-6.1V30.4z M96.3,34.3L88.1,43l1.1-11.3c0.1-0.9,0.7-1.7,1.5-2.1
				c0.9-0.4,1.8-0.3,2.6,0.2l4.6,3.3C97.4,33.4,96.8,33.8,96.3,34.3L96.3,34.3z M71.3,81.1V77h17.2l3.5,4.1H71.3z M131.4,65.8
				l-21.6,22.5c-1.1,1.2-2.7,1.8-4.3,1.8c-1,0-2-0.3-2.9-0.9l21.5-22.5c0.5-0.5,0.5-1.3,0-1.8c-0.5-0.5-1.3-0.5-1.8,0l-21.5,22.5
				l-19-22.3l24.5-26.1L130,56.8l-3.9,4.1c-0.5,0.5-0.5,1.3,0,1.8c0.3,0.2,0.6,0.4,0.9,0.4c0.3,0,0.7-0.1,0.9-0.4l4-4.2
				c0.6,0.8,1,1.8,1.1,2.9C133.1,63,132.5,64.6,131.4,65.8L131.4,65.8z"/>
			<path class="st5" d="M107.1,61.5l1-1c2-2,2-5.3,0-7.3l-1-1c-0.4-0.4-0.9-0.6-1.4-0.6c-0.5,0-1,0.2-1.4,0.6l-1.5,1.5
				c-0.8,0.8-1.3,1.8-1.4,2.8c-1.9-0.7-4-0.3-5.5,1.1L92.4,61c-0.8,0.8-0.8,2,0,2.8l2.6,2.6c1,1,2.3,1.5,3.6,1.5
				c1.3,0,2.6-0.5,3.6-1.5l3.1-3.1l3.9,3.9c0.3,0.3,0.6,0.4,0.9,0.4s0.7-0.1,0.9-0.4c0.5-0.5,0.5-1.3,0-1.8L107.1,61.5z M104.7,55.4
				l1-1l0.6,0.6c1,1,1,2.7,0,3.7l-1,1l-0.6-0.6C103.7,58,103.7,56.4,104.7,55.4z M100.4,64.6c-1,1-2.6,1-3.6,0l-2.1-2.1l3.1-3.1
				c1-1,2.6-1,3.6,0l2.1,2.1L100.4,64.6z"/>
			<path class="st5" d="M55.7,82.9c-1.5,0-2.8,1.2-2.8,2.8v2.8c0,0.7,0.6,1.3,1.3,1.3s1.3-0.6,1.3-1.3v-2.8c0-0.1,0.1-0.2,0.2-0.2
				c0.7,0,1.3-0.6,1.3-1.3S56.4,82.9,55.7,82.9z"/>
			<path class="st5" d="M54.2,93c-0.7,0-1.3,0.6-1.3,1.3v9.2c0,0.7,0.6,1.3,1.3,1.3s1.3-0.6,1.3-1.3v-9.2C55.5,93.6,54.9,93,54.2,93
				z"/>
			<path class="st5" d="M55.7,73.5c-4.4,0-8,3.6-8,8v22.4c0,0.7,0.6,1.3,1.3,1.3c0.7,0,1.3-0.6,1.3-1.3V81.5c0-3,2.4-5.4,5.4-5.4
				c0.7,0,1.3-0.6,1.3-1.3S56.4,73.5,55.7,73.5z"/>
		</g>
	</g>
</g>
<g id="圖層_4">
	<g>
		<g>
			<path class="st6" d="M119.7,82.5H116c0.3-8.3-3.9-12.1-6.7-14.6c-1.1-1-2-1.8-2.3-2.6c-1.7-4.4-7-6.1-10.5-6.2
				c-0.5-0.7-0.8-2.1-1.1-3.9c-0.4-2.2-0.8-5-2.2-7.9c-1.1-2.5-2.8-4-4.9-4.5c-2-0.5-3.9,0-5.5,0.7c-1.5-0.5-3.2-0.6-4.7-0.2
				L67.8,20.4c-0.2-0.4-0.5-0.7-0.9-0.9c-0.4-0.2-0.9-0.1-1.3,0L61,21.6c-0.8,0.4-1.2,1.4-0.8,2.2l10.3,22.8
				c-3.4,2.4-4.7,6.9-2.9,10.8l1,2.3c0.8,1.8,2,3.2,3.5,4.4c-0.3,0.7-0.5,1.5-0.7,2.3c-0.5,2.1-1.1,4.2-3.1,5.6
				c-3.8,2.6-4.2,7.7-4.1,10.5h-3.6c-0.9,0-1.7,0.7-1.7,1.7c0,0.9,0.7,1.7,1.7,1.7h0.2V92c0,7.1,5.7,12.8,12.8,12.8h33
				c7.1,0,12.8-5.7,12.8-12.8v-6.1h0.2c0.9,0,1.7-0.7,1.7-1.7C121.3,83.2,120.6,82.5,119.7,82.5z M71.6,58.4l-1-2.3
				c-1.2-2.7,0-6,2.7-7.2c0.4-0.2,0.7-0.5,0.9-0.9c0.2-0.4,0.1-0.9,0-1.3L63.9,24l1.5-0.7L75.7,46c0.2,0.4,0.5,0.7,0.9,0.9
				c0.4,0.2,0.9,0.1,1.3,0c0.3-0.1,0.6-0.2,0.9-0.3c-1.1,1.8-1.7,4.7-2.4,7.9c-0.4,1.7-0.7,3.4-1.1,4.8c-0.5,1.7-0.9,2.1-1,2.2
				c-0.1,0-0.1,0.1-0.2,0.1C73,60.7,72.2,59.6,71.6,58.4z M70.2,74.7c3-2.1,3.8-5.2,4.4-7.5c0.3-1.3,0.7-2.6,1.2-2.9
				c2-1,2.7-4.2,3.8-9.2c0.5-2.5,1.4-6.6,2.3-7.3c0.8-0.6,3.4-2.4,5.6-1.9c1.1,0.3,2,1.2,2.7,2.7c1.2,2.6,1.6,5,1.9,7.1
				c0.2,1.4,0.4,2.6,0.9,3.7c-1.8,0.5-4,1.5-5.5,3.7C87,64,87.1,65,87.9,65.6c0.3,0.2,0.6,0.3,1,0.3c0.5,0,1-0.2,1.4-0.7
				c1.9-2.7,5.7-2.8,5.7-2.8c0,0,0,0,0,0c0,0,0,0,0,0c2.6,0,6.8,1.2,8,4.1c0.6,1.5,1.8,2.6,3.1,3.8c2.6,2.4,5.8,5.3,5.6,12.2H67.6
				C67.5,80.4,67.6,76.5,70.2,74.7z M116.1,88.3H82.9c-0.9,0-1.7,0.7-1.7,1.7c0,0.9,0.7,1.7,1.7,1.7h33.1V92c0,5.2-4.3,9.5-9.5,9.5
				h-33c-5.2,0-9.5-4.3-9.5-9.5v-0.3h5.2c0.9,0,1.7-0.7,1.7-1.7c0-0.9-0.7-1.7-1.7-1.7h-5.2v-2.5h51.9L116.1,88.3L116.1,88.3z"/>
		</g>
	</g>
</g>
</svg>
